<?xml version="1.0" standalone="no"?>
<!DOCTYPE svg PUBLIC "-//W3C//DTD SVG 20010904//EN"
 "http://www.w3.org/TR/2001/REC-SVG-20010904/DTD/svg10.dtd">
<svg version="1.0" xmlns="http://www.w3.org/2000/svg"
 width="2000.000000pt" height="647.000000pt" viewBox="0 0 2000.000000 647.000000"
 preserveAspectRatio="xMidYMid meet">
<metadata>
Created by potrace 1.14, written by Peter Selinger 2001-2017
</metadata>
<g transform="translate(0.000000,647.000000) scale(0.100000,-0.100000)"
fill="#000000" stroke="none">
<path d="M19434 6339 c-75 -28 -137 -88 -176 -167 -30 -60 -33 -75 -32 -152 0
-104 27 -171 98 -243 69 -71 141 -101 241 -101 100 0 172 30 241 101 71 72 98
139 98 243 1 77 -2 92 -32 152 -39 80 -102 139 -178 168 -73 27 -189 27 -260
-1z m260 -50 c59 -27 130 -106 150 -166 49 -144 -10 -293 -145 -368 -47 -26
-64 -30 -134 -30 -97 0 -138 17 -211 90 -109 108 -114 283 -13 399 71 81 138
108 246 101 34 -2 82 -14 107 -26z"/>
<path d="M19430 6020 l0 -190 30 0 30 0 0 75 0 75 50 0 c87 0 120 -32 120
-116 0 -31 3 -34 30 -34 28 0 30 2 30 41 0 52 -25 106 -59 124 -14 8 -21 14
-14 15 6 0 25 12 42 26 25 21 31 33 31 66 0 85 -40 108 -190 108 l-100 0 0
-190z m213 119 c22 -28 22 -50 -4 -83 -18 -23 -27 -26 -85 -26 l-64 0 0 63 c0
35 3 67 8 71 4 5 34 5 67 2 44 -4 65 -11 78 -27z"/>
<path d="M1009 5657 c-91 -26 -155 -94 -189 -206 -16 -51 -289 -1758 -341
-2129 -19 -134 17 -223 106 -263 47 -22 79 -23 143 -7 64 16 142 94 170 168
11 30 59 282 107 560 47 278 89 513 91 523 5 16 36 17 475 17 l471 0 -6 -27
c-43 -217 -168 -985 -168 -1039 0 -81 22 -135 72 -177 72 -61 205 -41 287 45
72 74 69 62 249 1208 92 586 167 1094 167 1130 0 65 -16 113 -52 154 -68 78
-230 62 -312 -32 -65 -73 -75 -114 -119 -446 -22 -170 -40 -311 -40 -313 0 -1
-211 -3 -470 -3 -374 0 -470 3 -470 13 0 7 18 153 40 326 25 189 38 327 34
349 -21 118 -126 181 -245 149z"/>
<path d="M18673 5611 c-73 -25 -126 -65 -167 -124 l-35 -52 -100 -746 c-56
-410 -101 -759 -101 -776 0 -42 38 -94 84 -117 47 -23 202 -34 234 -17 33 17
98 120 122 191 44 130 140 563 245 1105 63 322 65 364 21 440 -31 52 -71 82
-133 101 -61 18 -107 17 -170 -5z"/>
<path d="M3084 4941 c-51 -31 -105 -91 -126 -139 -26 -58 -19 -119 22 -182 59
-92 16 -85 501 -83 l429 2 0 -115 0 -114 -127 0 c-423 0 -783 -120 -993 -330
-92 -92 -157 -200 -200 -334 -27 -83 -21 -116 51 -264 176 -362 524 -436 981
-208 l127 63 6 -46 c9 -70 33 -126 58 -140 18 -10 42 -10 107 -1 143 20 200
56 225 145 7 27 64 355 126 729 104 627 112 681 100 725 -30 115 -110 219
-216 282 l-50 29 -495 0 c-469 0 -497 -1 -526 -19z m743 -1071 c6 -58 14 -123
17 -144 4 -36 0 -43 -47 -94 -141 -149 -407 -263 -543 -233 -181 41 -233 250
-98 400 98 109 334 182 579 177 l80 -1 12 -105z"/>
<path d="M6996 4949 c-110 -11 -244 -42 -295 -69 -27 -13 -41 -28 -45 -47 -26
-123 -386 -2335 -386 -2372 0 -65 30 -109 99 -143 115 -59 263 -25 323 73 24
38 36 88 81 343 l52 298 235 2 c264 3 346 14 520 72 369 123 586 371 661 757
81 417 -107 803 -475 972 -210 97 -512 141 -770 114z m369 -434 c271 -70 428
-285 412 -560 -15 -248 -152 -415 -392 -479 -33 -9 -107 -19 -165 -23 -124 -7
-310 12 -310 32 0 15 158 999 166 1034 l5 24 112 -6 c62 -3 139 -13 172 -22z"/>
<path d="M10748 4925 c-65 -47 -110 -117 -116 -176 -5 -58 28 -136 78 -184
l31 -30 425 2 424 2 0 -115 0 -114 -120 0 c-153 0 -284 -14 -430 -47 -391 -86
-652 -291 -755 -594 -32 -92 -31 -101 5 -201 80 -219 225 -364 410 -409 174
-43 430 12 668 143 66 36 72 38 72 19 0 -50 24 -125 49 -153 l27 -31 90 13
c138 19 186 45 217 118 9 20 68 349 132 731 104 622 115 699 106 743 -24 108
-98 210 -205 280 l-59 38 -501 0 -501 0 -47 -35z m756 -977 c12 -74 26 -203
26 -235 0 -91 -261 -269 -453 -309 -137 -29 -237 9 -289 110 -26 50 -22 161 7
221 71 147 305 239 622 244 l82 1 5 -32z"/>
<path d="M14906 4925 c-205 -89 -413 -231 -566 -385 -255 -256 -372 -561 -339
-883 29 -289 171 -488 409 -575 l75 -27 383 -3 383 -3 29 -41 c99 -136 3 -252
-275 -333 -78 -23 -114 -28 -275 -32 -258 -8 -452 23 -590 92 -43 21 -53 22
-189 16 l-145 -6 -19 -33 c-11 -18 -22 -60 -24 -95 -7 -81 21 -150 84 -208 51
-47 178 -110 268 -133 97 -24 315 -39 485 -33 593 23 998 206 1150 522 40 83
70 202 70 278 0 87 -47 204 -121 297 l-42 53 6 241 c16 598 102 920 268 1006
26 14 42 32 58 69 37 86 26 149 -37 214 l-36 37 -466 0 -465 0 -79 -35z m409
-387 c-3 -18 -39 -259 -79 -536 -41 -277 -76 -506 -79 -509 -24 -24 -281 -46
-386 -33 -153 20 -239 68 -288 164 -37 71 -37 180 1 326 68 267 227 450 476
548 95 38 231 68 318 71 l43 1 -6 -32z"/>
<path d="M4880 4936 c-109 -24 -133 -51 -172 -193 -111 -413 -154 -661 -165
-934 -14 -389 67 -619 250 -709 79 -39 149 -50 318 -50 193 0 299 35 405 132
l42 39 27 -50 c38 -70 86 -100 178 -113 41 -6 95 -8 121 -4 43 7 50 12 96 74
37 50 57 91 79 162 62 200 137 616 230 1280 32 227 31 271 -6 312 -26 29 -75
48 -127 48 -61 0 -188 -25 -228 -46 -63 -32 -66 -37 -73 -152 -33 -535 -135
-942 -285 -1137 -43 -56 -73 -81 -140 -116 -41 -21 -56 -23 -163 -21 -130 3
-158 11 -201 62 -42 51 -58 120 -63 275 -7 213 36 498 128 843 28 104 39 163
35 185 -9 50 -43 97 -81 113 -41 17 -129 17 -205 0z"/>
<path d="M8955 4944 c-144 -16 -300 -59 -326 -90 -7 -9 -100 -542 -210 -1202
-211 -1263 -206 -1226 -160 -1290 46 -65 197 -101 284 -68 63 24 115 79 132
140 8 28 35 173 61 321 l47 270 226 0 c245 0 348 13 506 62 401 125 640 410
696 830 34 256 -49 532 -212 707 -147 157 -309 242 -564 296 -98 20 -381 34
-480 24z m337 -429 c112 -24 229 -84 298 -155 127 -129 178 -328 131 -512 -28
-107 -57 -163 -123 -233 -69 -74 -167 -127 -279 -151 -118 -26 -394 -22 -439
6 -12 7 0 92 69 527 46 285 86 521 88 526 7 13 179 8 255 -8z"/>
<path d="M12520 4936 c-71 -15 -122 -47 -143 -88 -46 -94 -155 -595 -183 -838
-22 -197 -15 -470 15 -585 57 -217 170 -336 346 -365 91 -15 321 -12 384 5 79
21 153 60 211 112 28 25 52 44 53 42 1 -2 13 -25 26 -51 29 -59 81 -95 156
-109 66 -12 168 -7 189 10 7 6 34 42 60 80 54 78 79 154 126 378 72 346 205
1229 194 1289 -13 71 -73 114 -158 114 -102 0 -252 -43 -283 -82 -6 -7 -14
-62 -17 -123 -31 -501 -123 -888 -260 -1094 -52 -78 -97 -120 -166 -153 -39
-19 -59 -22 -158 -20 -129 3 -168 14 -204 63 -42 56 -59 124 -65 254 -9 199
29 459 118 815 27 107 49 206 49 220 0 37 -32 92 -70 118 -38 25 -125 29 -220
8z"/>
<path d="M16952 4939 c-447 -43 -802 -340 -956 -801 -59 -176 -70 -306 -37
-463 25 -121 53 -190 110 -277 98 -149 244 -255 445 -322 l78 -26 480 0 479 0
30 33 c84 89 110 193 70 278 -12 25 -38 61 -57 80 l-35 34 -337 0 c-290 0
-348 3 -416 18 -251 58 -367 169 -391 374 l-7 63 683 2 683 3 13 50 c85 319
37 609 -126 772 -148 149 -397 212 -709 182z m212 -399 c114 -44 196 -153 196
-260 l0 -40 -410 0 -411 0 17 33 c59 115 168 231 256 273 49 23 61 25 173 21
94 -3 133 -9 179 -27z"/>
<path d="M18286 3595 c-115 -47 -202 -172 -200 -290 1 -117 40 -195 114 -232
37 -19 61 -23 141 -23 172 0 235 48 307 237 37 96 40 150 12 209 -53 109 -233
157 -374 99z"/>
<path d="M7936 2209 c-138 -13 -280 -43 -394 -85 -53 -20 -110 -37 -127 -39
-16 -1 -41 -5 -55 -9 -22 -6 -28 -1 -57 51 -50 91 -42 86 -105 64 -119 -41
-377 -68 -703 -73 -110 -2 -155 2 -210 17 -95 25 -169 13 -350 -56 -135 -51
-144 -53 -240 -54 -88 0 -107 3 -157 27 l-56 26 -6 -22 c-3 -13 -15 -35 -27
-49 -28 -37 -67 -35 -143 8 -85 47 -127 47 -171 0 l-33 -34 -108 14 c-140 19
-482 19 -638 0 -118 -14 -120 -14 -160 -53 -23 -22 -51 -45 -63 -51 -37 -19
-104 -12 -202 20 l-95 32 -27 -31 c-27 -31 -49 -87 -49 -128 0 -32 25 -47 87
-51 70 -4 75 -8 67 -47 -8 -45 15 -66 71 -66 24 0 70 -7 102 -15 152 -40 396
-2 552 86 42 24 56 28 60 18 9 -29 69 -79 94 -79 14 0 62 14 107 30 95 35 113
36 162 11 27 -13 50 -17 86 -13 28 2 114 -3 193 -13 81 -9 162 -14 188 -10 57
8 122 36 151 65 l21 21 62 -46 c34 -25 69 -44 77 -41 8 3 47 17 85 33 l70 28
310 0 c171 0 318 4 328 9 14 7 17 3 17 -21 0 -16 -7 -39 -16 -51 -14 -20 -17
-21 -37 -7 -12 8 -35 15 -52 15 -33 0 -107 -42 -139 -78 -17 -20 -29 -22 -115
-22 -79 0 -102 4 -129 20 -43 27 -143 50 -212 50 -66 0 -131 -28 -156 -64
l-17 -27 -23 34 c-46 68 -94 70 -197 6 -87 -53 -117 -60 -210 -47 -102 13
-421 5 -602 -17 -71 -8 -269 -35 -440 -60 -170 -24 -362 -50 -426 -56 l-116
-12 -19 -41 c-27 -56 -47 -59 -137 -24 -68 27 -80 29 -107 18 -16 -7 -39 -28
-51 -46 -19 -32 -24 -34 -77 -36 -85 -2 -134 2 -160 16 -19 10 -52 7 -185 -16
-89 -15 -328 -46 -532 -68 -776 -86 -1017 -136 -1355 -282 l-115 -50 -135 1
c-155 2 -234 -10 -489 -74 -97 -24 -202 -49 -235 -55 l-58 -12 4 -106 c4 -114
23 -174 71 -232 22 -25 26 -27 39 -13 16 15 19 12 112 -102 20 -25 26 -27 39
-16 14 11 25 4 80 -42 56 -47 73 -56 129 -66 143 -25 351 -8 556 44 157 39
394 115 422 135 53 37 95 43 264 36 171 -8 201 -3 244 37 13 12 32 38 43 58
12 24 29 41 51 48 39 14 46 7 83 -76 13 -29 29 -53 34 -53 6 0 28 7 48 15 96
37 169 46 448 55 296 9 349 17 446 65 72 37 129 40 255 14 161 -33 224 -31
304 12 l65 34 180 6 c104 3 192 11 209 18 16 6 44 28 63 47 l33 36 89 -21
c150 -36 224 -26 293 39 l41 40 33 -30 c61 -53 116 -52 249 8 86 38 157 50
202 35 18 -6 39 -6 58 0 17 5 167 13 335 17 303 8 383 17 485 53 27 10 110 17
255 21 469 15 813 43 1685 136 930 99 1183 118 1620 126 l310 6 122 39 c233
73 368 81 515 32 85 -28 86 -28 126 -10 65 28 172 37 320 26 146 -10 227 -2
315 31 45 17 60 18 109 10 167 -31 466 -29 812 4 233 23 438 29 546 18 79 -8
139 -6 350 13 552 51 1138 81 2050 105 300 7 334 10 445 35 163 37 257 38 347
1 l68 -27 32 22 c42 30 127 36 233 16 120 -23 166 -9 234 70 30 36 41 43 41
29 0 -11 5 -48 11 -82 11 -62 11 -63 36 -53 62 23 81 47 108 134 14 46 29 87
35 90 5 3 23 -13 41 -35 21 -26 40 -40 56 -40 24 0 41 -14 101 -84 32 -37 36
-38 83 -34 41 4 62 15 125 64 69 52 81 58 121 56 51 -2 114 -46 133 -93 10
-24 18 -29 46 -29 34 0 34 0 34 45 0 49 20 99 43 108 9 3 34 -15 62 -43 52
-53 53 -53 126 -8 70 42 139 34 139 -17 0 -39 47 -34 89 9 l33 34 66 -31 c52
-24 83 -32 148 -35 109 -6 186 9 384 73 91 29 184 56 207 60 38 6 43 10 59 51
16 43 16 49 0 99 -20 64 -99 155 -135 155 -14 0 -40 19 -70 52 l-48 53 -194 0
c-191 1 -197 2 -394 45 -192 42 -207 44 -369 45 l-169 0 -32 32 c-18 18 -37
33 -43 33 -5 0 -37 -18 -70 -40 -75 -51 -104 -52 -134 -5 -19 28 -28 34 -48
30 -140 -26 -805 -35 -1250 -15 -628 26 -744 30 -1020 29 -162 0 -333 -4 -380
-8 -84 -6 -85 -7 -159 -64 -40 -31 -79 -57 -86 -57 -7 0 -24 27 -38 60 l-26
60 -178 0 c-98 0 -1087 9 -2198 20 -1744 17 -2029 17 -2080 5 -33 -7 -114 -29
-180 -48 -155 -45 -223 -52 -298 -32 -60 16 -95 34 -137 71 -23 20 -39 22
-200 28 -96 3 -283 13 -415 21 -262 16 -495 17 -649 4z m64 -473 c64 -12 79
-12 102 0 15 8 49 17 74 21 l47 6 -22 -29 c-13 -19 -24 -54 -30 -100 -5 -39
-14 -80 -20 -92 -14 -25 -73 -41 -80 -21 -2 8 -25 36 -51 63 l-46 48 -32 -16
c-40 -21 -80 -20 -172 4 -106 28 -161 26 -198 -5 -37 -31 -48 -31 -56 -1 -3
14 -17 37 -30 53 l-24 29 116 27 c65 15 126 29 137 31 32 8 203 -4 285 -18z"/>
</g>
</svg>
